<svg width="813" height="119" viewBox="0 0 813 119" fill="none" xmlns="http://www.w3.org/2000/svg">
<path d="M66.1425 119H20.0048V106.36H35.8054V13.1359H12.4205V31.4646H0.412014V0.495424H85.7353V31.4646H73.7268V13.1359H50.3419V106.36H66.1425V119ZM99.1782 16.296H174.389V47.2652H161.749V28.9365H124.775V61.3278H161.749V73.9683H124.775V106.36H161.749V88.0308H174.389V119H99.1782V106.36H110.239V28.9365H99.1782V16.296ZM252.561 119V106.36H262.99L256.195 86.7668H216.694L209.9 106.36H220.486V119H186.989V106.36H195.363L222.066 28.9365H215.43V16.296H257.618V28.9365H250.823L277.526 106.36H286.059V119H252.561ZM236.445 29.4105L220.96 74.1263H251.929L236.445 29.4105ZM324.332 106.36H335.392V119H298.735V106.36H309.795V28.9365H298.735V16.296H330.968L360.831 91.0329L390.694 16.296H422.928V28.9365H411.867V106.36H422.928V119H386.27V106.36H397.331V34.1507L367.784 106.36H353.879L324.332 34.1507V106.36ZM482.226 106.36H494.866V89.4529H439.564V76.8124L485.702 0.495424H509.403V76.8124H519.357V89.4529H509.403V106.36H520.463V119H482.226V106.36ZM494.866 76.8124V11.7139L455.523 76.8124H494.866ZM546.28 16.296H621.491V47.2652H608.85V28.9365H571.877V61.3278H608.85V73.9683H571.877V106.36H608.85V88.0308H621.491V119H546.28V106.36H557.34V28.9365H546.28V16.296ZM713.884 53.5855H700.769V39.6809L691.289 29.8846H667.114L658.897 38.2589V53.7435L666.64 61.6438H699.505L715.464 78.3924V101.619L699.031 119H659.213L642.781 101.619V81.7106H655.895V95.6151L665.534 105.411H692.869L700.927 97.0372V82.9746L693.343 75.2323H660.478L644.361 58.3257V33.6767L660.794 16.296H697.451L713.884 33.6767V53.5855ZM792.983 119H746.845V106.36H762.646V13.1359H739.261V31.4646H727.252V0.495424H812.576V31.4646H800.567V13.1359H777.182V106.36H792.983V119Z" fill="#E4FE7A"/>
</svg>
